<svg width="35" height="35" viewBox="0 0 35 35" fill="none" xmlns="http://www.w3.org/2000/svg">
<path d="M32.8125 28.4375H30.625V18.5937L30.9449 18.9137C31.1505 19.1189 31.4292 19.234 31.7197 19.2338C32.0102 19.2335 32.2887 19.1179 32.4939 18.9123C32.6992 18.7067 32.8143 18.428 32.8141 18.1375C32.8138 17.847 32.6982 17.5685 32.4926 17.3633L19.0463 3.92108C18.6361 3.51116 18.0799 3.28088 17.5 3.28088C16.9201 3.28088 16.3639 3.51116 15.9537 3.92108L2.50742 17.3633C2.30237 17.5685 2.18725 17.8468 2.18738 18.1369C2.1875 18.427 2.30287 18.7052 2.50811 18.9102C2.71334 19.1153 2.99162 19.2304 3.28173 19.2303C3.57185 19.2302 3.85003 19.1148 4.05508 18.9096L4.375 18.5937V28.4375H2.1875C1.89742 28.4375 1.61922 28.5527 1.4141 28.7578C1.20898 28.963 1.09375 29.2412 1.09375 29.5312C1.09375 29.8213 1.20898 30.0995 1.4141 30.3046C1.61922 30.5098 1.89742 30.625 2.1875 30.625H32.8125C33.1026 30.625 33.3808 30.5098 33.5859 30.3046C33.791 30.0995 33.9062 29.8213 33.9062 29.5312C33.9062 29.2412 33.791 28.963 33.5859 28.7578C33.3808 28.5527 33.1026 28.4375 32.8125 28.4375ZM6.5625 16.4062L17.5 5.46874L28.4375 16.4062V28.4375H21.875V20.7812C21.875 20.4912 21.7598 20.213 21.5546 20.0078C21.3495 19.8027 21.0713 19.6875 20.7812 19.6875H14.2188C13.9287 19.6875 13.6505 19.8027 13.4454 20.0078C13.2402 20.213 13.125 20.4912 13.125 20.7812V28.4375H6.5625V16.4062ZM19.6875 28.4375H15.3125V21.875H19.6875V28.4375Z" fill="#8A38F5"/>
</svg>
