<svg width="29" height="26" viewBox="0 0 29 26" fill="none" xmlns="http://www.w3.org/2000/svg">
<path d="M2.96021 3.44563C3.5784 2.82741 4.31231 2.33702 5.12002 2.00245C5.92774 1.66787 6.79344 1.49567 7.66771 1.49567C8.54198 1.49567 9.40769 1.66787 10.2154 2.00245C11.0231 2.33702 11.757 2.82741 12.3752 3.44563L14.5 5.57042L16.6248 3.44563C17.8735 2.19712 19.567 1.49579 21.3328 1.49593C23.0986 1.49607 24.792 2.19766 26.0405 3.44636C27.289 4.69506 27.9904 6.38858 27.9902 8.15437C27.9901 9.92016 27.2885 11.6136 26.0398 12.8621L23.915 14.9854L23.934 15.0044L14.519 24.4208L14.5 24.4019L14.481 24.4208L5.06604 15.0044L5.085 14.9854L2.96021 12.8621C2.34178 12.2439 1.8512 11.5099 1.5165 10.702C1.18179 9.89417 1.00952 9.0283 1.00952 8.15385C1.00952 7.27941 1.18179 6.41354 1.5165 5.60569C1.8512 4.79784 2.34178 4.06384 2.96021 3.44563Z" stroke="black" stroke-width="1.5" stroke-linejoin="round"/>
</svg>
